ply
format ascii 1.0
element vertex 397
property float x
property float y
property float z
element face 772
property list uchar int vertex_indices
end_header
0.00542159983888268471 0.113490000367164612 0.0407489985227584839
-0.00174470001365989447 0.114249996840953827 0.0412730015814304352
-0.0106610003858804703 0.113379999995231628 0.040915999561548233
0.0264219995588064194 0.114990003407001495 0.03262300044298172
0.0245450008660554886 0.122840002179145813 0.0242550000548362732
0.0341369993984699249 0.113159999251365662 0.0250700004398822784
0.0288600008934736252 0.117729999125003815 0.0270370002835988998
0.0267500001937150955 0.122340001165866852 0.0176049992442131042
0.0357500016689300537 0.112300001084804535 0.0191089995205402374
0.0159820001572370529 0.123070001602172852 0.031279001384973526
0.00798130035400390625 0.124379999935626984 0.0327979996800422668
0.0181009992957115173 0.116740003228187561 0.0354930013418197632
0.00866870023310184479 0.117579996585845947 0.0375379994511604309
0.0180799998342990875 0.125359997153282166 0.0261320006102323532
0.00808610022068023682 0.128659993410110474 0.0261899996548891068
0.022749999538064003 0.121459998190402985 0.0296710003167390823
-0.00186890002805739641 0.124559998512268066 0.0331839993596076965
-0.0111680002883076668 0.123759999871253967 0.0325190015137195587
-0.00200630002655088902 0.119369998574256897 0.0381040014326572418
-0.0123199997469782829 0.118160001933574677 0.0374270007014274597
-0.00166589999571442604 0.128790006041526794 0.0267820004373788834
-0.011970999650657177 0.127230003476142883 0.0262189991772174835
0.0164839997887611389 0.128279998898506165 0.0192799996584653854
0.0070921001024544239 0.131029993295669556 0.0184150002896785736
0.00146149995271116495 0.131339997053146362 0.0170949995517730713
-0.0138210002332925797 0.128859996795654297 0.0192649997770786285
-0.0172499995678663254 0.112020000815391541 0.0400770008563995361
-0.0745560005307197571 0.134149998426437378 0.0510459989309310913
-0.0659710019826889038 0.143959999084472656 0.0410900004208087921
-0.0719249993562698364 0.145449995994567871 0.043265998363494873
-0.0655099973082542419 0.136240005493164062 0.0421949997544288635
-0.0711119994521141052 0.137669995427131653 0.0475180000066757202
-0.0795279964804649353 0.13415999710559845 0.0511940009891986847
-0.0804210007190704346 0.144280001521110535 0.0427929982542991638
-0.0826719999313354492 0.13779999315738678 0.0468060001730918884
-0.0881299972534179688 0.135140001773834229 0.0422220006585121155
-0.0663250014185905457 0.123470000922679901 0.0507289990782737732
-0.0723989978432655334 0.126619994640350342 0.0523639991879463196
-0.066091001033782959 0.119730003178119659 0.0508809983730316162
-0.072011999785900116 0.118110001087188721 0.052294999361038208
-0.0624330006539821625 0.126269996166229248 0.0438309982419013977
-0.0683259963989257812 0.129979997873306274 0.0488750003278255463
-0.0630939975380897522 0.118110001087188721 0.0443990007042884827
-0.071300998330116272 0.113219998776912689 0.0484099984169006348
-0.0805149972438812256 0.127409994602203369 0.0520340017974376678
-0.0781790018081665039 0.119099996984004974 0.0511160008609294891
-0.0852160006761550903 0.126090005040168762 0.0490010008215904236
-0.0895380005240440369 0.126210004091262817 0.0445890016853809357
-0.0826589986681938171 0.116609998047351837 0.0479700006544589996
-0.0895359963178634644 0.117839999496936798 0.0445699989795684814
-0.0564999990165233612 0.152480006217956543 0.0301319994032382965
-0.055516999214887619 0.153129994869232178 0.0269150007516145706
-0.0362499989569187164 0.171979993581771851 0.000176879999344237149
-0.0377499982714653015 0.171979993581771851 0.000221890004468150437
-0.0362499989569187164 0.169349998235702515 0.000519579974934458733
-0.0331760011613368988 0.157110005617141724 0.00186820002272725105
-0.0519130006432533264 0.154499992728233337 0.0112730003893375397
-0.0417070016264915466 0.166419997811317444 0.0030521999578922987
-0.0494679994881153107 0.164140000939369202 0.00419879984110593796
-0.0418919995427131653 0.156690001487731934 0.00548790022730827332
-0.0512240007519721985 0.158779993653297424 0.00802829954773187637
-0.0624170005321502686 0.153170004487037659 0.0331609994173049927
-0.0716700032353401184 0.153190001845359802 0.0337009988725185394
-0.0625429973006248474 0.155239999294281006 0.0274049993604421616
-0.0721099972724914551 0.15549999475479126 0.0276449993252754211
-0.0786629989743232727 0.152689993381500244 0.0322679989039897919
-0.0815690010786056519 0.153740003705024719 0.0260850004851818085
-0.0872500017285346985 0.152300000190734863 0.0221350006759166718
-0.057250000536441803 0.155680000782012939 0.0103249996900558472
-0.0578880012035369873 0.157499998807907104 0.00732249999418854713
-0.088500000536441803 0.152229994535446167 0.019215000793337822
-0.0561290010809898376 0.146160006523132324 0.0308500006794929504
-0.0547050014138221741 0.135550007224082947 0.0321270003914833069
-0.054143998771905899 0.147139996290206909 0.0262749996036291122
-0.0466249994933605194 0.132339999079704285 0.021909000352025032
-0.0513899996876716614 0.13694000244140625 0.0257869996130466461
-0.0182780008763074875 0.122380003333091736 0.0307730007916688919
-0.0216559991240501404 0.116429999470710754 0.0352090001106262207
-0.03192099928855896 0.115659996867179871 0.0328509993851184845
-0.0213479995727539062 0.124210000038146973 0.0245619993656873703
-0.0324099995195865631 0.123489998281002045 0.0232929997146129608
-0.0248690005391836166 0.12093999981880188 0.0287449993193149567
-0.0317469984292984009 0.120389997959136963 0.0282290000468492508
-0.0529120005667209625 0.126859992742538452 0.0349679999053478241
-0.0416719987988471985 0.115639999508857727 0.0329979993402957916
-0.0520370006561279297 0.116800002753734589 0.0345820002257823944
-0.0424950011074542999 0.124880000948905945 0.0240819994360208511
-0.0479459986090660095 0.12736000120639801 0.0281080007553100586
-0.042420998215675354 0.120350003242492676 0.0286330003291368484
-0.0476609990000724792 0.120240002870559692 0.028870999813079834
-0.0359640009701251984 0.151299998164176941 0.000539499975275248289
-0.05059799924492836 0.147400006651878357 0.0138809997588396072
-0.0463749989867210388 0.132929995656013489 0.0182889997959136963
-0.0491250008344650269 0.138559997081756592 0.0162690002471208572
-0.0429759994149208069 0.149149999022483826 0.00540030002593994141
-0.0479650013148784637 0.146589994430541992 0.00867830030620098114
-0.0229260008782148361 0.126300007104873657 0.0180769991129636765
-0.031582999974489212 0.125900000333786011 0.0178040005266666412
-0.0417330004274845123 0.127959996461868286 0.016650000587105751
-0.0614820010960102081 0.146980002522468567 0.0361680015921592712
-0.0717289969325065613 0.150260001420974731 0.0383279994130134583
-0.0605259984731674194 0.136800006031990051 0.035999000072479248
-0.0826189965009689331 0.148230001330375671 0.0359550006687641144
-0.0878240019083023071 0.14449000358581543 0.033778999000787735
-0.0890000015497207642 0.138280004262924194 0.0377740003168582916
-0.0856619998812675476 0.150949999690055847 0.028208000585436821
-0.0896010026335716248 0.147249996662139893 0.0258690007030963898
-0.0906810015439987183 0.137480005621910095 0.0236900001764297485
-0.0587220005691051483 0.1292400062084198 0.0389919988811016083
-0.0600749999284744263 0.115120001137256622 0.037684999406337738
-0.0918119996786117554 0.127670004963874817 0.0387029983103275299
-0.0917270034551620483 0.11657000333070755 0.0396189987659454346
-0.0931639969348907471 0.12721000611782074 0.0252110008150339127
-0.093938000500202179 0.120669998228549957 0.0243989992886781693
-0.0915829986333847046 0.145219996571540833 0.019859999418258667
-0.0909290015697479248 0.13666999340057373 0.0198170002549886703
-0.0930939987301826477 0.116350002586841583 0.0189590007066726685
0.0249480009078979492 0.102860003709793091 0.0414180010557174683
0.03359999880194664 0.0926269963383674622 0.0404630005359649658
0.0274199992418289185 0.0963860005140304565 0.0433119982481002808
0.0339200012385845184 0.0869110003113746643 0.0410340018570423126
0.0281559992581605911 0.0868370011448860168 0.0450839996337890625
0.033810000866651535 0.0786039978265762329 0.0408539995551109314
0.0281249992549419403 0.0768740028142929077 0.0450589992105960846
0.0144999995827674866 0.0932789966464042664 0.0508799999952316284
0.00748169980943202972 0.0947299972176551819 0.05231500044465065
0.0174070000648498535 0.105350002646446228 0.0431389994919300079
0.00795360002666711807 0.10632999986410141 0.0429680012166500092
0.0185109991580247879 0.0971940010786056519 0.047253001481294632
0.00864360015839338303 0.0993229970335960388 0.0480789989233016968
-0.00201969989575445652 0.0956979990005493164 0.0539060011506080627
-0.0114460000768303871 0.0951690003275871277 0.0538620017468929291
-0.00187499995809048414 0.106909997761249542 0.0434550009667873383
-0.0118749998509883881 0.106880001723766327 0.0430190004408359528
-0.00176220003049820662 0.100709997117519379 0.0466479994356632233
-0.0124979997053742409 0.100079998373985291 0.0459159985184669495
0.0163809992372989655 0.0858940035104751587 0.051642000675201416
0.00811669975519180298 0.0869100019335746765 0.0552279986441135406
0.017643999308347702 0.0769549980759620667 0.0523720011115074158
0.00812499970197677612 0.0768529996275901794 0.0555359981954097748
0.0205749999731779099 0.088169001042842865 0.0490060001611709595
0.0224450007081031799 0.0757210031151771545 0.0495630018413066864
-0.0017931000329554081 0.0868489965796470642 0.0568430013954639435
-0.0119430003687739372 0.0867709964513778687 0.0570090003311634064
-0.00195670011453330517 0.0768629983067512512 0.0578030012547969818
-0.0118749998509883881 0.0769639983773231506 0.0570220015943050385
0.0332500003278255463 0.0675410032272338867 0.0400330014526844025
0.0281489994376897812 0.0668290033936500549 0.042952999472618103
0.0267609991133213043 0.0578290000557899475 0.0425879992544651031
0.0235709995031356812 0.0474600009620189667 0.0404280014336109161
0.0158319994807243347 0.0674180015921592712 0.0516390018165111542
0.00804310012608766556 0.0669019967317581177 0.0550060011446475983
0.0139840003103017807 0.0588859990239143372 0.0504160001873970032
0.00809730030596256256 0.0568879991769790649 0.052949998527765274
0.0205659996718168259 0.0659580007195472717 0.0483000017702579498
0.0185940004885196686 0.056538999080657959 0.047878999263048172
0.0128750000149011612 0.0526520013809204102 0.0496889986097812653
-0.00178519997280091047 0.0667119994759559631 0.0565030016005039215
-0.0117849996313452721 0.0668850019574165344 0.0550150014460086823
-0.00187499995809048414 0.056597001850605011 0.0544099994003772736
-0.0118399998173117638 0.0570540018379688263 0.0527140013873577118
-0.0156880002468824387 0.0524690002202987671 0.0496149994432926178
0.00661539984866976738 0.0499299988150596619 0.0512589998543262482
0.0180879998952150345 0.0466549992561340332 0.0433209985494613647
0.00884099956601858139 0.0454370006918907166 0.0466229990124702454
0.0176880005747079849 0.0397190004587173462 0.0430839993059635162
0.00812499970197677612 0.0395159982144832611 0.0453739985823631287
-0.00161110004410147667 0.0498440004885196686 0.0517200008034706116
-0.0124500002712011337 0.0467730015516281128 0.0509029999375343323
-0.0138509999960660934 0.039778001606464386 0.0510360002517700195
-0.00202940008603036404 0.0448740012943744659 0.0475869998335838318
-0.0116529995575547218 0.0468599982559680939 0.0486610010266304016
-0.00186109996866434813 0.039606001228094101 0.0473389998078346252
-0.00915450043976306915 0.0395799987018108368 0.049414999783039093
0.0436609983444213867 0.0940280035138130188 0.0225200001150369644
0.034641999751329422 0.104730002582073212 0.0318310000002384186
0.0283429995179176331 0.107199996709823608 0.03633899986743927
0.03633899986743927 0.0965519994497299194 0.034843001514673233
0.031732998788356781 0.0993719995021820068 0.0385049991309642792
0.0369979999959468842 0.106679998338222504 0.0267810001969337463
0.0328750014305114746 0.111079998314380646 0.0295899994671344757
0.0409380011260509491 0.0971319973468780518 0.026662999764084816
0.0441530011594295502 0.0864659994840621948 0.0242410004138946533
0.0537500008940696716 0.0722210034728050232 0.0204290002584457397
0.045159999281167984 0.0765739977359771729 0.023593999445438385
0.038035999983549118 0.0866630002856254578 0.0354590006172657013
0.0378610007464885712 0.0766249969601631165 0.0356579981744289398
0.0422159992158412933 0.0872370004653930664 0.0282540004700422287
0.0423550009727478027 0.0767470002174377441 0.0285800006240606308
0.0438750013709068298 0.0962280035018920898 0.0152690000832080841
0.0443749986588954926 0.0967969968914985657 0.00864449981600046158
0.0395449995994567871 0.106100000441074371 0.0176550000905990601
0.0423129983246326447 0.100089997053146362 0.0172370001673698425
0.0454059988260269165 0.0874169990420341492 0.0156039996072649956
0.0551179982721805573 0.0726390033960342407 0.0179440006613731384
0.048721998929977417 0.0737600028514862061 0.0174339991062879562
0.0459170006215572357 0.0862979963421821594 0.00942109990864992142
0.0194329991936683655 0.109600000083446503 0.0390629991888999939
0.0109700001776218414 0.110579997301101685 0.0396480001509189606
0.0466569997370243073 0.0571530014276504517 0.0313370004296302795
0.0560790002346038818 0.0663350000977516174 0.0241219997406005859
0.0481679998338222504 0.0670100003480911255 0.0262979995459318161
0.0560549981892108917 0.0572529993951320648 0.0249019991606473923
0.0511629991233348846 0.0566620007157325745 0.0291370004415512085
0.0369139984250068665 0.0670320019125938416 0.0361220017075538635
0.0329999998211860657 0.0647199973464012146 0.0399029999971389771
0.0380039997398853302 0.0565069988369941711 0.0331190004944801331
0.0306289996951818466 0.0549149997532367706 0.0384839996695518494
0.0418750010430812836 0.0663829967379570007 0.0283569991588592529
0.0414340011775493622 0.0608800016343593597 0.0296320002526044846
0.0449209995567798615 0.0499040000140666962 0.0312430001795291901
0.0546349994838237762 0.0501670017838478088 0.0220439992845058441
0.0482800006866455078 0.0473700016736984253 0.0258450005203485489
0.0379730015993118286 0.0483470000326633453 0.0314560011029243469
0.0280530005693435669 0.0470610000193119049 0.0359909981489181519
0.0255950000137090683 0.0403460003435611725 0.034150000661611557
0.0384549982845783234 0.0435089990496635437 0.0282780006527900696
0.0320309996604919434 0.0432780012488365173 0.0292530003935098648
0.0365809984505176544 0.0403349995613098145 0.0251439996063709259
0.0301900003105401993 0.0393210016191005707 0.0268469993025064468
0.0593330003321170807 0.0678910017013549805 0.0173610001802444458
0.0465000011026859283 0.0714519992470741272 0.019710000604391098
0.0595620013773441315 0.0577469989657402039 0.0183400008827447891
0.0556359998881816864 0.0491990000009536743 0.0191730000078678131
0.0505000017583370209 0.0450639985501766205 0.0191810000687837601
0.0230000000447034836 0.0478029996156692505 0.0397760011255741119
0.0223890002816915512 0.0388600006699562073 0.0387950018048286438
-0.0195450000464916229 0.0939000025391578674 0.0522050000727176666
-0.0214620009064674377 0.106179997324943542 0.0420590005815029144
-0.0310270003974437714 0.103950001299381256 0.0412280000746250153
-0.0225210003554821014 0.0977229997515678406 0.0451940000057220459
-0.0318580009043216705 0.0970259979367256165 0.0438780002295970917
-0.0432620011270046234 0.104120001196861267 0.0408909991383552551
-0.052154000848531723 0.104039996862411499 0.040972001850605011
-0.0418750010430812836 0.0969439968466758728 0.0424240007996559143
-0.0519189983606338501 0.0969669967889785767 0.0435630008578300476
-0.0214889999479055405 0.0866720005869865417 0.0547670014202594757
-0.0270000007003545761 0.0830869972705841064 0.0502839982509613037
-0.0210699997842311859 0.0772489979863166809 0.0543650016188621521
-0.0260109994560480118 0.0896340012550354004 0.0489809997379779816
-0.0318930000066757202 0.0870350003242492676 0.0441690012812614441
-0.0256249997764825821 0.074891999363899231 0.0471020005643367767
-0.031970001757144928 0.076899997889995575 0.0421769991517066956
-0.04182400181889534 0.0869539976119995117 0.043294999748468399
-0.0518250018358230591 0.0868439972400665283 0.0449329987168312073
-0.041917998343706131 0.0767280012369155884 0.0425640009343624115
-0.0518490001559257507 0.0768769979476928711 0.0429919995367527008
-0.0613389983773231506 0.103929996490478516 0.0411639995872974396
-0.0726720020174980164 0.109760001301765442 0.0442939996719360352
-0.0617839992046356201 0.0968250036239624023 0.0433269999921321869
-0.0700580030679702759 0.0962029993534088135 0.0413970015943050385
-0.0804390013217926025 0.110909998416900635 0.0443429984152317047
-0.0619269981980323792 0.0867239981889724731 0.0445200018584728241
-0.0703440010547637939 0.0873520001769065857 0.0419079996645450592
-0.0614099986851215363 0.0774890035390853882 0.0421780012547969818
-0.0685790032148361206 0.0801440030336380005 0.0410239994525909424
-0.019045000895857811 0.0677319988608360291 0.0523880012333393097
-0.0177420005202293396 0.058908998966217041 0.0508089996874332428
-0.0235479995608329773 0.0663819983601570129 0.0452260002493858337
-0.0339899994432926178 0.0677950009703636169 0.0409290008246898651
-0.0216899998486042023 0.0565490014851093292 0.0451640002429485321
-0.0361110009253025055 0.0607060007750988007 0.0404069982469081879
-0.0412309989333152771 0.0669509992003440857 0.0413919985294342041
-0.0485880002379417419 0.0709559991955757141 0.0403570011258125305
-0.0403000004589557648 0.0594649985432624817 0.0404459983110427856
-0.0219199992716312408 0.0449649989604949951 0.0522579997777938843
-0.0291869994252920151 0.0435849986970424652 0.0510880015790462494
-0.0219190008938312531 0.0398259982466697693 0.0535209998488426208
-0.0303310006856918335 0.03974900022149086 0.0521330013871192932
-0.0219979993999004364 0.0498469993472099304 0.046725001186132431
-0.0319110006093978882 0.046847999095916748 0.045187000185251236
-0.0352759994566440582 0.0397530011832714081 0.0475290007889270782
-0.0420159995555877686 0.0448229983448982239 0.0415939986705780029
-0.0519400015473365784 0.0447070002555847168 0.0434979982674121857
-0.0419280007481575012 0.0393269993364810944 0.0435819998383522034
-0.0518569983541965485 0.0392520017921924591 0.0462119989097118378
-0.0594529993832111359 0.0442400015890598297 0.0428620018064975739
-0.060764998197555542 0.039087001234292984 0.0443629994988441467
-0.0242730006575584412 0.110380001366138458 0.0391290001571178436
-0.0323790013790130615 0.108779996633529663 0.0379519984126091003
-0.0411520004272460938 0.108529999852180481 0.0379690006375312805
-0.0516979992389678955 0.109059996902942657 0.0382580012083053589
-0.0620910003781318665 0.108769997954368591 0.0382740013301372528
-0.0716549977660179138 0.105959996581077576 0.0375160016119480133
-0.0746340006589889526 0.0977459996938705444 0.038346998393535614
-0.0791200026869773865 0.105080001056194305 0.0323080010712146759
-0.0802029967308044434 0.0967580005526542664 0.0335920006036758423
-0.0837799981236457825 0.105679996311664581 0.0259850006550550461
-0.0872920006513595581 0.103139996528625488 0.0208250004798173904
-0.0852100029587745667 0.0970790013670921326 0.0278099998831748962
-0.0880820006132125854 0.0964559987187385559 0.0229850001633167267
-0.0751599967479705811 0.0860399976372718811 0.0388160012662410736
-0.0645769983530044556 0.0734549984335899353 0.0389700010418891907
-0.0722789987921714783 0.0764160007238388062 0.0364129990339279175
-0.0763750001788139343 0.0725630000233650208 0.0287299994379281998
-0.0800310000777244568 0.0870760008692741394 0.0342900007963180542
-0.0789190009236335754 0.0793709978461265564 0.0324769988656044006
-0.0848340019583702087 0.0866860002279281616 0.0269740000367164612
-0.0878909975290298462 0.089233003556728363 0.0226109996438026428
-0.0810479968786239624 0.0771690011024475098 0.025829000398516655
-0.0863929986953735352 0.107840001583099365 0.0186349991708993912
-0.0876720026135444641 0.104919999837875366 0.0172639992088079453
-0.0893329977989196777 0.0984830036759376526 0.0176100004464387894
-0.0863749980926513672 0.0830669999122619629 0.0186069998890161514
-0.0891790017485618591 0.0891859978437423706 0.0189469996839761734
-0.0828789994120597839 0.0761089995503425598 0.0177939999848604202
-0.0825000032782554626 0.0746740028262138367 0.00711750006303191185
-0.0264369994401931763 0.0641409978270530701 0.0393210016191005707
-0.0300350002944469452 0.0661299973726272583 0.0389420017600059509
-0.0261310003697872162 0.0565310008823871613 0.0388819985091686249
-0.0316639989614486694 0.0566570013761520386 0.0377420000731945038
-0.0457159988582134247 0.0645409971475601196 0.0391659997403621674
-0.0519590005278587341 0.066868998110294342 0.0367330014705657959
-0.0425570011138916016 0.0555449984967708588 0.0390259996056556702
-0.049405999481678009 0.056892000138759613 0.0343439988791942596
-0.0555000007152557373 0.0623910017311573029 0.0294979996979236603
-0.0537500008940696716 0.0585739985108375549 0.026312999427318573
-0.0340600013732910156 0.0501369982957839966 0.038577001541852951
-0.0417409986257553101 0.0495899990200996399 0.0392899997532367706
-0.0509749986231327057 0.049435000866651535 0.0369650013744831085
-0.0529999993741512299 0.0510650016367435455 0.0292089991271495819
-0.0541450008749961853 0.0545680001378059387 0.0122570004314184189
-0.055847998708486557 0.0541700012981891632 0.00832720007747411728
-0.054843999445438385 0.0492950007319450378 0.011462000198662281
-0.0561500005424022675 0.0506189987063407898 0.00929289963096380234
-0.0614509992301464081 0.0682569965720176697 0.0353760011494159698
-0.0697249993681907654 0.0699580013751983643 0.0327880010008811951
-0.0628229975700378418 0.0633220002055168152 0.0268859993666410446
-0.07103700190782547 0.0667869970202445984 0.0252279993146657944
-0.0608570016920566559 0.0605680011212825775 0.0226429998874664307
-0.0670000016689300537 0.0615580007433891296 0.0201089996844530106
-0.0781999975442886353 0.0712789967656135559 0.0210319999605417252
-0.0621160008013248444 0.0451450012624263763 0.0378019995987415314
-0.0654729977250099182 0.0395129993557929993 0.0379640012979507446
-0.0672499984502792358 0.0374200008809566498 0.0334130004048347473
-0.0727019980549812317 0.0650079995393753052 0.0187010001391172409
-0.0614500008523464203 0.0591650009155273438 0.0187309999018907547
-0.0675000026822090149 0.0614789985120296478 0.0192210003733634949
-0.05741100013256073 0.0541139990091323853 0.00382569991052150726
-0.0792220011353492737 0.0706539973616600037 0.0177350006997585297
-0.062472999095916748 0.0446799993515014648 0.0111100003123283386
-0.0672499984502792358 0.042257998138666153 0.0104139996692538261
-0.0663890019059181213 0.0405149981379508972 0.0131599996238946915
-0.0683590024709701538 0.0385020002722740173 0.0119580002501606941
-0.0613810010254383087 0.0474799983203411102 0.0076069999486207962
-0.0685589984059333801 0.0435490012168884277 0.00815759971737861633
-0.0709289982914924622 0.0398299992084503174 0.00858880020678043365
-0.0166250001639127731 0.183750003576278687 -0.0197349991649389267
-0.0151979997754096985 0.174710005521774292 -0.0188679993152618408
-0.0159440003335475922 0.162640005350112915 -0.00910369958728551865
-0.015977000817656517 0.160699993371963501 -0.00880720000714063644
-0.0132510000839829445 0.167080000042915344 -0.0152639998123049736
-0.0142919998615980148 0.160980001091957092 -0.0112519999966025352
-0.0139859998598694801 0.184000000357627869 -0.0237390007823705673
-0.011633000336587429 0.176990002393722534 -0.0233490001410245895
-0.00910289958119392395 0.169880002737045288 -0.0214569997042417526
-0.0255619995296001434 0.182730004191398621 -0.00962470006197690964
-0.0272499993443489075 0.182539999485015869 -0.00943840015679597855
-0.0257360003888607025 0.179480001330375671 -0.00896530039608478546
-0.0312159992754459381 0.1758899986743927 -0.00511540006846189499
-0.020399000495672226 0.184499993920326233 -0.014942999929189682
-0.0213389992713928223 0.176449999213218689 -0.0145659996196627617
-0.0271249990910291672 0.17234000563621521 -0.0101560000330209732
-0.0393900014460086823 0.173299998044967651 -0.00235749990679323673
-0.0228760000318288803 0.164059996604919434 -0.00781030021607875824
-0.0315969996154308319 0.166510000824928284 -0.00492919981479644775
-0.022600000724196434 0.159119993448257446 -0.00379900005646049976
-0.0303719993680715561 0.157670006155967712 -0.0012671999866142869
-0.0211580004543066025 0.168489992618560791 -0.0123829999938607216
-0.0270000007003545761 0.171200007200241089 -0.0102199995890259743
-0.0417190007865428925 0.168129995465278625 -0.000749579980038106441
-0.048250000923871994 0.167480006814002991 -0.000151910004206001759
-0.0372500009834766388 0.161469995975494385 -7.2627997724339366e-05
-0.0664289966225624084 0.157829999923706055 -0.00856729969382286072
-0.0712840035557746887 0.158390000462532043 -0.00599800003692507744
-0.0659789964556694031 0.162880003452301025 -0.0177919995039701462
-0.071622997522354126 0.163839995861053467 -0.0157600007951259613
-0.0660680010914802551 0.160510003566741943 -0.0135669996961951256
-0.0733070001006126404 0.1604900062084198 -0.0118319997563958168
-0.0769999995827674866 0.162039995193481445 -0.0192409995943307877
-0.0771789997816085815 0.158509999513626099 -0.0149499997496604919
-0.0736910030245780945 0.172859996557235718 -0.0379440002143383026
-0.0775500014424324036 0.172209993004798889 -0.0391750000417232513
-0.065921001136302948 0.165859997272491455 -0.0250220000743865967
-0.0720949992537498474 0.167840003967285156 -0.0247249994426965714
-0.0659999996423721313 0.168080002069473267 -0.0309159997850656509
-0.0734480023384094238 0.170509994029998779 -0.0320449993014335632
-0.0777700021862983704 0.164340004324913025 -0.0259380005300045013
-0.0778929963707923889 0.160390004515647888 -0.0212990008294582367
-0.0782110020518302917 0.168999999761581421 -0.0345660001039505005
-0.0346670001745223999 0.151309996843338013 -0.000710289983544498682
-0.0661170035600662231 0.17352999746799469 -0.0474530011415481567
-0.0719859972596168518 0.176119998097419739 -0.0453840009868144989
-0.0692500025033950806 0.181999996304512024 -0.0550259985029697418
-0.0649920031428337097 0.178020000457763672 -0.054644998162984848
-0.0699350014328956604 0.179829999804496765 -0.0519879981875419617
-0.0779300034046173096 0.175160005688667297 -0.0443999990820884705
3 223 211 224
3 211 223 222
3 202 211 222
3 211 202 203
3 304 116 113
3 112 114 113
3 226 173 334
3 8 353 7
3 352 23 355
3 111 49 113
3 116 111 113
3 49 47 113
3 47 112 113
3 112 47 110
3 395 393 396
3 343 346 334
3 202 200 203
3 220 200 222
3 200 202 222
3 179 191 8
3 354 355 7
3 353 354 7
3 393 357 360
3 249 252 244
3 252 254 244
3 235 249 244
3 345 335 346
3 335 339 346
3 302 116 304
3 283 282 248
3 252 250 253
3 250 252 249
3 115 112 110
3 115 114 112
3 114 115 107
3 340 277 276
3 340 344 345
3 194 200 220
3 215 226 219
3 200 201 203
3 226 172 173
3 166 172 226
3 131 143 142
3 131 134 135
3 227 131 135
3 131 227 143
3 347 353 360
3 347 354 353
3 19 17 76
3 96 79 25
3 79 76 25
3 198 12 0
3 23 22 355
3 355 22 7
3 22 4 7
3 15 6 7
3 4 15 7
3 1 132 0
3 132 1 2
3 127 132 134
3 127 198 0
3 132 127 0
3 133 132 2
3 134 133 135
3 132 133 134
3 358 357 359
3 235 247 249
3 283 247 282
3 247 281 282
3 247 250 249
3 250 247 283
3 234 235 244
3 255 252 253
3 252 255 254
3 344 337 345
3 337 335 345
3 337 328 335
3 251 285 248
3 285 283 248
3 302 301 116
3 392 395 396
3 344 332 276
3 332 340 276
3 340 332 344
3 277 333 334
3 340 333 277
3 333 343 334
3 143 238 145
3 336 337 344
3 323 344 276
3 275 277 334
3 277 275 276
3 190 194 220
3 218 217 219
3 217 215 219
3 194 183 200
3 183 201 200
3 183 194 195
3 201 183 195
3 211 212 224
3 212 211 203
3 210 212 203
3 199 210 203
3 201 199 203
3 199 201 209
3 206 199 209
3 199 206 210
3 238 256 145
3 256 238 241
3 227 230 239
3 230 227 135
3 179 175 191
3 24 352 25
3 24 23 352
3 16 21 17
3 76 21 25
3 17 21 76
3 180 179 8
3 180 175 179
3 121 119 140
3 11 12 198
3 12 11 9
3 11 15 9
3 10 24 16
3 10 12 9
3 22 10 9
3 18 1 0
3 12 18 0
3 18 10 16
3 10 18 12
3 1 18 2
3 18 19 2
3 18 17 19
3 18 16 17
3 13 22 9
3 15 13 9
3 22 13 4
3 13 15 4
3 130 131 142
3 131 130 134
3 127 126 198
3 357 356 360
3 356 358 360
3 358 356 357
3 390 96 25
3 366 390 25
3 47 35 110
3 35 115 110
3 233 247 235
3 247 233 281
3 290 302 304
3 298 290 304
3 291 295 296
3 291 255 253
3 303 298 304
3 299 303 305
3 303 304 346
3 295 303 296
3 303 299 296
3 328 330 327
3 330 328 337
3 330 336 327
3 336 330 337
3 255 292 254
3 292 325 254
3 293 292 255
3 293 291 296
3 291 293 255
3 300 111 116
3 301 300 116
3 111 300 49
3 300 48 49
3 48 300 251
3 288 301 302
3 389 382 396
3 392 394 395
3 395 394 393
3 394 357 393
3 52 369 359
3 362 358 359
3 369 362 359
3 368 362 369
3 341 340 345
3 341 345 346
3 343 341 346
3 238 237 241
3 325 246 254
3 246 325 312
3 254 246 244
3 246 245 244
3 338 336 344
3 315 325 327
3 325 315 312
3 274 268 271
3 274 275 334
3 173 274 334
3 320 314 321
3 186 188 185
3 192 190 191
3 175 192 191
3 192 175 177
3 215 149 226
3 149 163 226
3 165 166 226
3 163 165 226
3 206 213 210
3 213 206 207
3 165 164 166
3 164 165 163
3 167 162 159
3 230 231 239
3 231 230 229
3 234 231 229
3 122 186 185
3 24 20 16
3 20 21 16
3 20 24 25
3 21 20 25
3 77 19 76
3 5 180 8
3 180 5 6
3 5 8 7
3 6 5 7
3 118 119 121
3 174 118 185
3 118 174 177
3 119 178 117
3 175 178 177
3 178 118 177
3 118 178 119
3 197 126 117
3 197 11 198
3 126 197 198
3 15 3 6
3 11 3 15
3 197 3 11
3 3 180 6
3 24 14 23
3 10 14 24
3 14 22 23
3 14 10 22
3 129 127 134
3 129 126 127
3 70 389 396
3 46 35 47
3 48 46 49
3 46 47 49
3 104 114 107
3 34 104 35
3 115 104 107
3 35 104 115
3 234 232 235
3 232 233 235
3 232 229 280
3 232 234 229
3 281 232 280
3 233 232 281
3 306 299 305
3 339 306 346
3 306 303 346
3 303 306 305
3 295 284 286
3 291 284 295
3 284 285 286
3 250 284 253
3 284 291 253
3 284 250 283
3 285 284 283
3 303 297 298
3 297 303 295
3 297 295 286
3 328 294 335
3 299 294 296
3 294 293 296
3 289 290 298
3 290 289 302
3 289 288 302
3 289 297 286
3 297 289 298
3 287 300 301
3 288 287 301
3 287 285 251
3 300 287 251
3 289 287 288
3 285 287 286
3 287 289 286
3 394 363 357
3 357 363 359
3 363 52 359
3 52 363 53
3 364 368 369
3 364 349 368
3 349 364 366
3 349 351 368
3 351 352 355
3 351 349 352
3 362 361 358
3 368 361 362
3 361 347 360
3 358 361 360
3 342 333 340
3 341 342 340
3 333 342 343
3 342 341 343
3 236 238 143
3 236 237 238
3 237 236 239
3 236 227 239
3 227 236 143
3 237 242 241
3 243 234 244
3 245 243 244
3 242 243 245
3 263 262 245
3 263 246 312
3 246 263 245
3 314 316 321
3 315 316 312
3 338 316 336
3 262 264 261
3 320 324 323
3 323 324 344
3 324 338 344
3 204 208 186
3 208 188 186
3 201 208 209
3 208 204 209
3 181 192 177
3 192 181 190
3 174 181 177
3 194 196 195
3 196 184 195
3 190 196 194
3 149 214 207
3 214 213 207
3 213 214 217
3 217 214 215
3 214 149 215
3 216 212 210
3 213 216 210
3 216 218 224
3 212 216 224
3 216 217 218
3 216 213 217
3 144 143 145
3 143 144 142
3 258 256 241
3 308 258 241
3 256 158 145
3 158 144 145
3 144 158 157
3 172 170 173
3 170 172 166
3 164 170 166
3 170 164 162
3 167 170 162
3 156 164 163
3 164 156 162
3 162 153 159
3 153 157 159
3 156 153 162
3 153 156 152
3 120 122 185
3 122 120 121
3 118 120 185
3 120 118 121
3 139 137 142
3 144 139 142
3 79 81 76
3 81 77 76
3 81 79 96
3 19 26 2
3 77 26 19
3 26 133 2
3 26 77 278
3 3 176 180
3 180 176 175
3 176 197 117
3 176 3 197
3 178 176 117
3 176 178 175
3 130 125 134
3 125 129 134
3 137 125 142
3 125 130 142
3 125 137 124
3 129 125 124
3 128 129 124
3 129 128 126
3 126 128 117
3 128 119 117
3 128 124 140
3 119 128 140
3 390 97 96
3 97 81 96
3 87 89 86
3 32 34 35
3 46 32 35
3 282 43 248
3 43 251 248
3 44 32 46
3 32 33 34
3 326 294 328
3 294 326 293
3 293 326 292
3 292 326 325
3 326 328 327
3 325 326 327
3 335 331 339
3 294 331 335
3 331 306 339
3 306 331 299
3 331 294 299
3 349 350 352
3 350 349 366
3 352 350 25
3 350 366 25
3 351 348 368
3 348 361 368
3 354 348 355
3 348 351 355
3 347 348 354
3 361 348 347
3 259 262 261
3 308 259 261
3 262 259 245
3 259 242 245
3 259 308 241
3 242 259 241
3 240 231 234
3 243 240 234
3 231 240 239
3 240 237 239
3 240 242 237
3 240 243 242
3 311 263 312
3 263 311 262
3 316 311 312
3 311 316 314
3 311 264 262
3 316 322 321
3 322 316 338
3 324 322 338
3 322 320 321
3 322 324 320
3 316 329 336
3 329 316 315
3 336 329 327
3 329 315 327
3 313 311 314
3 311 313 264
3 273 323 276
3 275 273 276
3 188 221 184
3 208 221 188
3 184 221 195
3 221 201 195
3 221 208 201
3 189 174 190
3 181 189 190
3 189 181 174
3 187 174 185
3 188 187 185
3 268 266 271
3 205 148 207
3 206 205 207
3 205 206 209
3 204 205 209
3 156 155 152
3 155 156 163
3 153 151 157
3 151 153 152
3 151 144 157
3 151 139 144
3 139 136 137
3 124 136 140
3 137 136 124
3 77 78 278
3 81 78 77
3 228 26 278
3 230 228 229
3 228 278 229
3 26 228 133
3 133 228 135
3 228 230 135
3 92 93 75
3 94 93 92
3 90 92 390
3 90 94 92
3 98 87 86
3 92 98 390
3 98 97 390
3 281 109 282
3 85 109 281
3 83 85 89
3 87 83 89
3 30 31 41
3 43 45 251
3 45 43 39
3 45 48 251
3 45 46 48
3 45 44 46
3 37 45 39
3 45 37 44
3 391 394 392
3 383 376 375
3 386 382 389
3 55 90 390
3 52 365 369
3 365 364 369
3 54 52 53
3 54 365 52
3 365 54 372
3 320 319 314
3 319 320 323
3 273 319 323
3 319 313 314
3 313 319 318
3 272 274 271
3 274 272 275
3 272 273 275
3 319 272 318
3 272 319 273
3 187 193 174
3 174 193 190
3 193 196 190
3 267 266 268
3 169 267 173
3 267 274 173
3 274 267 268
3 171 170 167
3 170 171 173
3 171 169 173
3 310 308 261
3 264 310 261
3 313 310 264
3 307 258 308
3 310 307 308
3 307 310 309
3 307 260 258
3 260 307 309
3 260 269 161
3 269 260 309
3 123 122 121
3 149 225 163
3 225 155 163
3 155 225 148
3 225 149 207
3 148 225 207
3 278 279 229
3 78 279 278
3 229 279 280
3 82 78 81
3 85 84 89
3 279 84 280
3 84 279 78
3 84 281 280
3 84 85 281
3 82 84 78
3 42 43 282
3 109 42 282
3 42 109 85
3 83 42 85
3 83 74 72
3 74 92 75
3 72 74 75
3 74 83 87
3 74 98 92
3 98 74 87
3 27 33 32
3 27 31 33
3 44 27 32
3 37 27 44
3 31 27 41
3 27 37 41
3 67 105 66
3 105 102 66
3 105 67 70
3 102 103 33
3 104 103 114
3 105 103 102
3 103 104 34
3 33 103 34
3 70 387 389
3 67 387 70
3 387 379 376
3 31 29 33
3 386 381 382
3 381 392 396
3 382 381 396
3 381 391 392
3 381 386 391
3 391 384 385
3 386 384 391
3 383 384 376
3 384 383 385
3 384 387 376
3 384 386 389
3 387 384 389
3 364 367 366
3 365 367 364
3 367 390 366
3 367 55 390
3 55 367 372
3 367 365 372
3 59 56 94
3 90 59 94
3 59 55 372
3 55 59 90
3 371 391 385
3 371 363 394
3 391 371 394
3 193 182 196
3 182 193 187
3 182 187 188
3 182 188 184
3 196 182 184
3 269 270 266
3 270 269 309
3 266 270 271
3 270 272 271
3 168 171 161
3 269 168 161
3 171 168 169
3 258 257 256
3 260 257 258
3 257 158 256
3 257 260 161
3 155 154 152
3 154 155 148
3 97 80 81
3 80 82 81
3 80 98 86
3 98 80 97
3 88 84 82
3 88 80 86
3 80 88 82
3 89 88 86
3 84 88 89
3 43 38 39
3 42 38 43
3 106 105 70
3 106 103 105
3 106 70 114
3 103 106 114
3 379 378 376
3 378 374 376
3 28 31 30
3 28 29 31
3 28 100 29
3 56 95 94
3 91 95 56
3 95 93 94
3 95 91 93
3 383 58 385
3 58 371 385
3 363 370 53
3 371 370 363
3 370 54 53
3 310 317 309
3 317 270 309
3 317 313 318
3 317 310 313
3 272 317 318
3 270 317 272
3 265 168 269
3 267 265 266
3 265 269 266
3 265 267 169
3 168 265 169
3 257 160 158
3 157 160 159
3 158 160 157
3 160 257 161
3 171 160 161
3 160 167 159
3 160 171 167
3 205 147 148
3 147 154 148
3 138 136 139
3 136 138 140
3 36 37 39
3 38 36 39
3 37 36 41
3 36 38 42
3 373 377 374
3 376 377 375
3 374 377 376
3 28 99 100
3 69 383 375
3 69 58 383
3 377 69 375
3 58 57 371
3 57 370 371
3 57 58 59
3 57 59 372
3 54 57 372
3 370 57 54
3 147 146 123
3 123 146 122
3 146 205 204
3 146 147 205
3 146 204 186
3 122 146 186
3 141 147 123
3 147 141 154
3 138 141 140
3 141 121 140
3 141 123 121
3 150 151 152
3 154 150 152
3 151 150 139
3 150 138 139
3 141 150 154
3 150 141 138
3 40 42 83
3 40 36 42
3 36 40 41
3 388 378 379
3 388 380 378
3 380 388 66
3 387 388 379
3 388 67 66
3 388 387 67
3 65 380 66
3 65 100 62
3 102 65 66
3 65 102 33
3 29 65 33
3 100 65 29
3 378 64 374
3 380 64 378
3 373 64 62
3 64 373 374
3 64 65 62
3 65 64 380
3 101 28 30
3 101 99 28
3 63 377 373
3 63 69 377
3 69 60 58
3 59 60 56
3 58 60 59
3 108 83 72
3 108 40 83
3 101 108 72
3 108 101 30
3 108 30 41
3 40 108 41
3 51 91 56
3 71 50 99
3 71 72 75
3 71 101 72
3 101 71 99
3 93 71 75
3 50 61 99
3 99 61 100
3 100 61 62
3 61 373 62
3 61 63 373
3 51 68 50
3 63 68 69
3 68 51 56
3 68 61 50
3 61 68 63
3 60 68 56
3 68 60 69
3 71 73 50
3 51 73 91
3 73 51 50
3 91 73 93
3 73 71 93
